<?xml version="1.0" standalone="no"?>
<svg xmlns:xlink="http://www.w3.org/1999/xlink" id="wave" style="transform:rotate(0deg); transition: 0.3s" viewBox="0 0 1440 490" version="1.1" xmlns="http://www.w3.org/2000/svg"><defs><linearGradient id="sw-gradient-0" x1="0" x2="0" y1="1" y2="0"><stop stop-color="rgba(31, 20, 87, 1)" offset="0%"/><stop stop-color="rgba(255, 11, 11, 1)" offset="100%"/></linearGradient></defs><path style="transform:translate(0, 0px); opacity:1" fill="url(#sw-gradient-0)" d="M0,392L26.7,392C53.3,392,107,392,160,367.5C213.3,343,267,294,320,277.7C373.3,261,427,278,480,253.2C533.3,229,587,163,640,138.8C693.3,114,747,131,800,171.5C853.3,212,907,278,960,277.7C1013.3,278,1067,212,1120,171.5C1173.3,131,1227,114,1280,147C1333.3,180,1387,261,1440,245C1493.3,229,1547,114,1600,57.2C1653.3,0,1707,0,1760,0C1813.3,0,1867,0,1920,57.2C1973.3,114,2027,229,2080,285.8C2133.3,343,2187,343,2240,334.8C2293.3,327,2347,310,2400,326.7C2453.3,343,2507,392,2560,383.8C2613.3,376,2667,310,2720,285.8C2773.3,261,2827,278,2880,285.8C2933.3,294,2987,294,3040,302.2C3093.3,310,3147,327,3200,351.2C3253.3,376,3307,408,3360,351.2C3413.3,294,3467,147,3520,73.5C3573.3,0,3627,0,3680,32.7C3733.3,65,3787,131,3813,163.3L3840,196L3840,490L3813.3,490C3786.7,490,3733,490,3680,490C3626.7,490,3573,490,3520,490C3466.7,490,3413,490,3360,490C3306.7,490,3253,490,3200,490C3146.7,490,3093,490,3040,490C2986.7,490,2933,490,2880,490C2826.7,490,2773,490,2720,490C2666.7,490,2613,490,2560,490C2506.7,490,2453,490,2400,490C2346.7,490,2293,490,2240,490C2186.7,490,2133,490,2080,490C2026.7,490,1973,490,1920,490C1866.7,490,1813,490,1760,490C1706.7,490,1653,490,1600,490C1546.7,490,1493,490,1440,490C1386.7,490,1333,490,1280,490C1226.7,490,1173,490,1120,490C1066.7,490,1013,490,960,490C906.7,490,853,490,800,490C746.7,490,693,490,640,490C586.7,490,533,490,480,490C426.7,490,373,490,320,490C266.7,490,213,490,160,490C106.7,490,53,490,27,490L0,490Z"/></svg>