<?xml version="1.0" standalone="no"?>
<svg xmlns:xlink="http://www.w3.org/1999/xlink" id="wave" style="transform:rotate(0deg); transition: 0.3s" viewBox="0 0 1440 490" version="1.1" xmlns="http://www.w3.org/2000/svg"><defs><linearGradient id="sw-gradient-0" x1="0" x2="0" y1="1" y2="0"><stop stop-color="rgba(242, 246, 255, 1)" offset="0%"/><stop stop-color="rgba(242, 246, 255, 0.51)" offset="100%"/></linearGradient></defs><path style="transform:translate(0, 0px); opacity:1" fill="url(#sw-gradient-0)" d="M0,245L80,236.8C160,229,320,212,480,179.7C640,147,800,98,960,114.3C1120,131,1280,212,1440,261.3C1600,310,1760,327,1920,326.7C2080,327,2240,310,2400,253.2C2560,196,2720,98,2880,106.2C3040,114,3200,229,3360,302.2C3520,376,3680,408,3840,367.5C4000,327,4160,212,4320,147C4480,82,4640,65,4800,81.7C4960,98,5120,147,5280,155.2C5440,163,5600,131,5760,122.5C5920,114,6080,131,6240,155.2C6400,180,6560,212,6720,220.5C6880,229,7040,212,7200,196C7360,180,7520,163,7680,196C7840,229,8000,310,8160,359.3C8320,408,8480,425,8640,408.3C8800,392,8960,343,9120,318.5C9280,294,9440,294,9600,261.3C9760,229,9920,163,10080,187.8C10240,212,10400,327,10560,310.3C10720,294,10880,147,11040,81.7C11200,16,11360,33,11440,40.8L11520,49L11520,490L11440,490C11360,490,11200,490,11040,490C10880,490,10720,490,10560,490C10400,490,10240,490,10080,490C9920,490,9760,490,9600,490C9440,490,9280,490,9120,490C8960,490,8800,490,8640,490C8480,490,8320,490,8160,490C8000,490,7840,490,7680,490C7520,490,7360,490,7200,490C7040,490,6880,490,6720,490C6560,490,6400,490,6240,490C6080,490,5920,490,5760,490C5600,490,5440,490,5280,490C5120,490,4960,490,4800,490C4640,490,4480,490,4320,490C4160,490,4000,490,3840,490C3680,490,3520,490,3360,490C3200,490,3040,490,2880,490C2720,490,2560,490,2400,490C2240,490,2080,490,1920,490C1760,490,1600,490,1440,490C1280,490,1120,490,960,490C800,490,640,490,480,490C320,490,160,490,80,490L0,490Z"/></svg>