<?xml version="1.0" standalone="no"?>
<svg xmlns:xlink="http://www.w3.org/1999/xlink" id="wave" style="transform:rotate(0deg); transition: 0.3s" viewBox="0 0 1440 360" version="1.1" xmlns="http://www.w3.org/2000/svg"><defs><linearGradient id="sw-gradient-0" x1="0" x2="0" y1="1" y2="0"><stop stop-color="rgba(80, 54, 183, 1)" offset="0%"/><stop stop-color="rgba(20, 19, 92, 1)" offset="100%"/></linearGradient></defs><path style="transform:translate(0, 0px); opacity:1" fill="url(#sw-gradient-0)" d="M0,36L80,36C160,36,320,36,480,42C640,48,800,60,960,96C1120,132,1280,192,1440,216C1600,240,1760,228,1920,204C2080,180,2240,144,2400,108C2560,72,2720,36,2880,72C3040,108,3200,216,3360,216C3520,216,3680,108,3840,54C4000,0,4160,0,4320,0C4480,0,4640,0,4800,54C4960,108,5120,216,5280,216C5440,216,5600,108,5760,60C5920,12,6080,24,6240,36C6400,48,6560,60,6720,60C6880,60,7040,48,7200,48C7360,48,7520,60,7680,102C7840,144,8000,216,8160,228C8320,240,8480,192,8640,198C8800,204,8960,264,9120,246C9280,228,9440,132,9600,120C9760,108,9920,180,10080,204C10240,228,10400,204,10560,168C10720,132,10880,84,11040,60C11200,36,11360,36,11440,36L11520,36L11520,360L11440,360C11360,360,11200,360,11040,360C10880,360,10720,360,10560,360C10400,360,10240,360,10080,360C9920,360,9760,360,9600,360C9440,360,9280,360,9120,360C8960,360,8800,360,8640,360C8480,360,8320,360,8160,360C8000,360,7840,360,7680,360C7520,360,7360,360,7200,360C7040,360,6880,360,6720,360C6560,360,6400,360,6240,360C6080,360,5920,360,5760,360C5600,360,5440,360,5280,360C5120,360,4960,360,4800,360C4640,360,4480,360,4320,360C4160,360,4000,360,3840,360C3680,360,3520,360,3360,360C3200,360,3040,360,2880,360C2720,360,2560,360,2400,360C2240,360,2080,360,1920,360C1760,360,1600,360,1440,360C1280,360,1120,360,960,360C800,360,640,360,480,360C320,360,160,360,80,360L0,360Z"/></svg>