<?xml version="1.0" standalone="no"?>
<svg xmlns:xlink="http://www.w3.org/1999/xlink" id="wave" style="transform:rotate(0deg); transition: 0.3s" viewBox="0 0 1440 490" version="1.1" xmlns="http://www.w3.org/2000/svg"><defs><linearGradient id="sw-gradient-0" x1="0" x2="0" y1="1" y2="0"><stop stop-color="rgba(31, 20, 87, 1)" offset="0%"/><stop stop-color="rgba(255, 11, 11, 1)" offset="100%"/></linearGradient></defs><path style="transform:translate(0, 0px); opacity:1" fill="url(#sw-gradient-0)" d="M0,196L18.5,179.7C36.9,163,74,131,111,114.3C147.7,98,185,98,222,122.5C258.5,147,295,196,332,196C369.2,196,406,147,443,155.2C480,163,517,229,554,212.3C590.8,196,628,98,665,89.8C701.5,82,738,163,775,204.2C812.3,245,849,245,886,212.3C923.1,180,960,114,997,89.8C1033.8,65,1071,82,1108,114.3C1144.6,147,1182,196,1218,179.7C1255.4,163,1292,82,1329,57.2C1366.2,33,1403,65,1440,65.3C1476.9,65,1514,33,1551,49C1587.7,65,1625,131,1662,204.2C1698.5,278,1735,359,1772,334.8C1809.2,310,1846,180,1883,163.3C1920,147,1957,245,1994,285.8C2030.8,327,2068,310,2105,277.7C2141.5,245,2178,196,2215,179.7C2252.3,163,2289,180,2326,204.2C2363.1,229,2400,261,2437,253.2C2473.8,245,2511,196,2548,196C2584.6,196,2622,245,2640,269.5L2658.5,294L2658.5,490L2640,490C2621.5,490,2585,490,2548,490C2510.8,490,2474,490,2437,490C2400,490,2363,490,2326,490C2289.2,490,2252,490,2215,490C2178.5,490,2142,490,2105,490C2067.7,490,2031,490,1994,490C1956.9,490,1920,490,1883,490C1846.2,490,1809,490,1772,490C1735.4,490,1698,490,1662,490C1624.6,490,1588,490,1551,490C1513.8,490,1477,490,1440,490C1403.1,490,1366,490,1329,490C1292.3,490,1255,490,1218,490C1181.5,490,1145,490,1108,490C1070.8,490,1034,490,997,490C960,490,923,490,886,490C849.2,490,812,490,775,490C738.5,490,702,490,665,490C627.7,490,591,490,554,490C516.9,490,480,490,443,490C406.2,490,369,490,332,490C295.4,490,258,490,222,490C184.6,490,148,490,111,490C73.8,490,37,490,18,490L0,490Z"/></svg>