<?xml version="1.0" standalone="no"?>
<svg xmlns:xlink="http://www.w3.org/1999/xlink" id="wave" style="transform:rotate(0deg); transition: 0.3s" viewBox="0 0 1440 490" version="1.1" xmlns="http://www.w3.org/2000/svg"><defs><linearGradient id="sw-gradient-0" x1="0" x2="0" y1="1" y2="0"><stop stop-color="rgba(113, 161, 209, 1)" offset="0%"/><stop stop-color="rgba(23, 106, 177, 1)" offset="100%"/></linearGradient></defs><path style="transform:translate(0, 0px); opacity:1" fill="url(#sw-gradient-0)" d="M0,147L60,122.5C120,98,240,49,360,40.8C480,33,600,65,720,98C840,131,960,163,1080,155.2C1200,147,1320,98,1440,89.8C1560,82,1680,114,1800,147C1920,180,2040,212,2160,204.2C2280,196,2400,147,2520,138.8C2640,131,2760,163,2880,196C3000,229,3120,261,3240,245C3360,229,3480,163,3600,163.3C3720,163,3840,229,3960,245C4080,261,4200,229,4320,212.3C4440,196,4560,196,4680,212.3C4800,229,4920,261,5040,294C5160,327,5280,359,5400,334.8C5520,310,5640,229,5760,204.2C5880,180,6000,212,6120,228.7C6240,245,6360,245,6480,212.3C6600,180,6720,114,6840,138.8C6960,163,7080,278,7200,269.5C7320,261,7440,131,7560,130.7C7680,131,7800,261,7920,294C8040,327,8160,261,8280,196C8400,131,8520,65,8580,32.7L8640,0L8640,490L8580,490C8520,490,8400,490,8280,490C8160,490,8040,490,7920,490C7800,490,7680,490,7560,490C7440,490,7320,490,7200,490C7080,490,6960,490,6840,490C6720,490,6600,490,6480,490C6360,490,6240,490,6120,490C6000,490,5880,490,5760,490C5640,490,5520,490,5400,490C5280,490,5160,490,5040,490C4920,490,4800,490,4680,490C4560,490,4440,490,4320,490C4200,490,4080,490,3960,490C3840,490,3720,490,3600,490C3480,490,3360,490,3240,490C3120,490,3000,490,2880,490C2760,490,2640,490,2520,490C2400,490,2280,490,2160,490C2040,490,1920,490,1800,490C1680,490,1560,490,1440,490C1320,490,1200,490,1080,490C960,490,840,490,720,490C600,490,480,490,360,490C240,490,120,490,60,490L0,490Z"/><defs><linearGradient id="sw-gradient-1" x1="0" x2="0" y1="1" y2="0"><stop stop-color="rgba(243, 106, 62, 1)" offset="0%"/><stop stop-color="rgba(255, 179, 11, 1)" offset="100%"/></linearGradient></defs><path style="transform:translate(0, 50px); opacity:0.9" fill="url(#sw-gradient-1)" d="M0,294L60,294C120,294,240,294,360,269.5C480,245,600,196,720,196C840,196,960,245,1080,228.7C1200,212,1320,131,1440,89.8C1560,49,1680,49,1800,40.8C1920,33,2040,16,2160,81.7C2280,147,2400,294,2520,334.8C2640,376,2760,310,2880,269.5C3000,229,3120,212,3240,187.8C3360,163,3480,131,3600,171.5C3720,212,3840,327,3960,334.8C4080,343,4200,245,4320,187.8C4440,131,4560,114,4680,98C4800,82,4920,65,5040,106.2C5160,147,5280,245,5400,285.8C5520,327,5640,310,5760,253.2C5880,196,6000,98,6120,49C6240,0,6360,0,6480,49C6600,98,6720,196,6840,196C6960,196,7080,98,7200,73.5C7320,49,7440,98,7560,122.5C7680,147,7800,147,7920,155.2C8040,163,8160,180,8280,220.5C8400,261,8520,327,8580,359.3L8640,392L8640,490L8580,490C8520,490,8400,490,8280,490C8160,490,8040,490,7920,490C7800,490,7680,490,7560,490C7440,490,7320,490,7200,490C7080,490,6960,490,6840,490C6720,490,6600,490,6480,490C6360,490,6240,490,6120,490C6000,490,5880,490,5760,490C5640,490,5520,490,5400,490C5280,490,5160,490,5040,490C4920,490,4800,490,4680,490C4560,490,4440,490,4320,490C4200,490,4080,490,3960,490C3840,490,3720,490,3600,490C3480,490,3360,490,3240,490C3120,490,3000,490,2880,490C2760,490,2640,490,2520,490C2400,490,2280,490,2160,490C2040,490,1920,490,1800,490C1680,490,1560,490,1440,490C1320,490,1200,490,1080,490C960,490,840,490,720,490C600,490,480,490,360,490C240,490,120,490,60,490L0,490Z"/><defs><linearGradient id="sw-gradient-2" x1="0" x2="0" y1="1" y2="0"><stop stop-color="rgba(239, 35, 76, 1)" offset="0%"/><stop stop-color="rgba(244, 59, 67, 1)" offset="100%"/></linearGradient></defs><path style="transform:translate(0, 100px); opacity:0.8" fill="url(#sw-gradient-2)" d="M0,245L60,277.7C120,310,240,376,360,359.3C480,343,600,245,720,212.3C840,180,960,212,1080,236.8C1200,261,1320,278,1440,277.7C1560,278,1680,261,1800,277.7C1920,294,2040,343,2160,343C2280,343,2400,294,2520,277.7C2640,261,2760,278,2880,302.2C3000,327,3120,359,3240,367.5C3360,376,3480,359,3600,318.5C3720,278,3840,212,3960,171.5C4080,131,4200,114,4320,114.3C4440,114,4560,131,4680,179.7C4800,229,4920,310,5040,310.3C5160,310,5280,229,5400,187.8C5520,147,5640,147,5760,171.5C5880,196,6000,245,6120,294C6240,343,6360,392,6480,400.2C6600,408,6720,376,6840,367.5C6960,359,7080,376,7200,351.2C7320,327,7440,261,7560,269.5C7680,278,7800,359,7920,383.8C8040,408,8160,376,8280,359.3C8400,343,8520,343,8580,343L8640,343L8640,490L8580,490C8520,490,8400,490,8280,490C8160,490,8040,490,7920,490C7800,490,7680,490,7560,490C7440,490,7320,490,7200,490C7080,490,6960,490,6840,490C6720,490,6600,490,6480,490C6360,490,6240,490,6120,490C6000,490,5880,490,5760,490C5640,490,5520,490,5400,490C5280,490,5160,490,5040,490C4920,490,4800,490,4680,490C4560,490,4440,490,4320,490C4200,490,4080,490,3960,490C3840,490,3720,490,3600,490C3480,490,3360,490,3240,490C3120,490,3000,490,2880,490C2760,490,2640,490,2520,490C2400,490,2280,490,2160,490C2040,490,1920,490,1800,490C1680,490,1560,490,1440,490C1320,490,1200,490,1080,490C960,490,840,490,720,490C600,490,480,490,360,490C240,490,120,490,60,490L0,490Z"/><defs><linearGradient id="sw-gradient-3" x1="0" x2="0" y1="1" y2="0"><stop stop-color="rgba(112, 50, 115, 1)" offset="0%"/><stop stop-color="rgba(226, 5, 70, 1)" offset="100%"/></linearGradient></defs><path style="transform:translate(0, 150px); opacity:0.7" fill="url(#sw-gradient-3)" d="M0,98L60,106.2C120,114,240,131,360,122.5C480,114,600,82,720,89.8C840,98,960,147,1080,138.8C1200,131,1320,65,1440,106.2C1560,147,1680,294,1800,334.8C1920,376,2040,310,2160,261.3C2280,212,2400,180,2520,138.8C2640,98,2760,49,2880,98C3000,147,3120,294,3240,351.2C3360,408,3480,376,3600,326.7C3720,278,3840,212,3960,155.2C4080,98,4200,49,4320,98C4440,147,4560,294,4680,302.2C4800,310,4920,180,5040,138.8C5160,98,5280,147,5400,196C5520,245,5640,294,5760,285.8C5880,278,6000,212,6120,212.3C6240,212,6360,278,6480,261.3C6600,245,6720,147,6840,122.5C6960,98,7080,147,7200,155.2C7320,163,7440,131,7560,171.5C7680,212,7800,327,7920,334.8C8040,343,8160,245,8280,212.3C8400,180,8520,212,8580,228.7L8640,245L8640,490L8580,490C8520,490,8400,490,8280,490C8160,490,8040,490,7920,490C7800,490,7680,490,7560,490C7440,490,7320,490,7200,490C7080,490,6960,490,6840,490C6720,490,6600,490,6480,490C6360,490,6240,490,6120,490C6000,490,5880,490,5760,490C5640,490,5520,490,5400,490C5280,490,5160,490,5040,490C4920,490,4800,490,4680,490C4560,490,4440,490,4320,490C4200,490,4080,490,3960,490C3840,490,3720,490,3600,490C3480,490,3360,490,3240,490C3120,490,3000,490,2880,490C2760,490,2640,490,2520,490C2400,490,2280,490,2160,490C2040,490,1920,490,1800,490C1680,490,1560,490,1440,490C1320,490,1200,490,1080,490C960,490,840,490,720,490C600,490,480,490,360,490C240,490,120,490,60,490L0,490Z"/></svg>